<?xml version="1.0" encoding="utf-8"?>
<!-- Generator: Adobe Illustrator 22.0.1, SVG Export Plug-In . SVG Version: 6.00 Build 0)  -->
<svg version="1.1" id="Ebene_2" xmlns="http://www.w3.org/2000/svg" xmlns:xlink="http://www.w3.org/1999/xlink" x="0px" y="0px"
	 viewBox="0 0 1280 800" style="enable-background:new 0 0 1280 800;" xml:space="preserve">
<g>
	<g>
		<path d="M693.6,245.8l2.9-215h21.8l28.1,174.4l28.3-174.4h21.6l2.9,215h-17.9l-1.8-156.1l-26.9,156.1h-12.6L713.5,89.7l-1.8,156.1
			H693.6z"/>
		<path d="M842.3,247.9c-4.5,0-8.4-1.7-11.8-5.2c-3.4-3.5-6.1-7.9-8.1-13.3c-2-5.4-2.9-11.1-2.9-17.1c0-9.6,1.2-17.6,3.5-24.2
			c2.4-6.5,5.6-12.1,9.7-16.6c4.1-4.5,8.9-8.5,14.3-11.8c5.4-3.4,11.2-6.6,17.2-9.8v-10.9c0-6.2-0.3-11.3-0.8-15.4
			c-0.5-4.1-1.6-7.1-3.2-9.2c-1.6-2-4.1-3.1-7.4-3.1c-2.9,0-5.2,0.9-7,2.7c-1.8,1.8-3,4.3-3.8,7.6c-0.8,3.3-1.2,7.1-1.2,11.5v7.7
			l-20.8-1.1c0.3-17,3.1-29.5,8.6-37.6c5.5-8.1,14-12.1,25.5-12.1c11.3,0,19.3,4.2,24,12.5c4.7,8.3,7.1,20.4,7.1,36.1v70.1
			c0,4.8,0.1,9.4,0.3,13.8c0.2,4.4,0.5,8.5,0.8,12.3c0.3,3.8,0.6,7.4,0.9,10.8h-19.3c-0.4-2.8-0.9-6.4-1.5-10.8
			c-0.6-4.3-1-8.3-1.3-11.8c-1.3,6-3.8,11.6-7.6,16.9C854,245.3,848.9,247.9,842.3,247.9z M850.6,223.5c2.1,0,4.1-0.8,5.9-2.4
			c1.8-1.6,3.5-3.4,4.9-5.4c1.4-2,2.4-3.7,2.9-4.9v-43.5c-3.3,2.5-6.4,5-9.2,7.4c-2.9,2.5-5.4,5.1-7.6,7.8c-2.2,2.7-3.9,5.8-5.1,9.3
			c-1.2,3.5-1.9,7.4-1.9,11.8c0,6.2,0.9,11.1,2.6,14.6C844.8,221.7,847.3,223.5,850.6,223.5z"/>
		<path d="M935.1,293.3c-6.8,0-13-1-18.5-2.9c-5.5-1.9-9.8-5-13-9.3c-3.1-4.2-4.7-9.8-4.7-16.7c0-5,0.8-9.3,2.4-13
			c1.6-3.7,3.6-6.9,6.1-9.7c2.5-2.7,5.1-5,7.9-6.8c-3.7-1.4-6.4-3.7-8.3-6.8c-1.8-3.1-2.8-6.3-2.8-9.7c0-5.7,1.1-10.5,3.3-14.6
			c2.2-4.1,5.3-8.5,9.2-13.3c-4.3-4.4-7.6-10.1-9.8-17c-2.2-6.9-3.3-16.5-3.3-28.7c0-12,1.2-22.1,3.6-30.1c2.4-8.1,6-14.2,10.8-18.3
			c4.8-4.2,10.6-6.2,17.6-6.2c6.2,0,11.1,1.4,14.8,4.2c3.7,2.8,6.6,7.1,8.5,12.7c0.7-1.4,2.4-3.8,5.3-7.3c2.9-3.5,6.2-6.3,10-8.6
			l3.1-1.9l5.3,18.3c-1.7,0.4-4,1.2-6.8,2.5c-2.8,1.3-5.4,2.7-7.9,4c-2.4,1.3-4,2.4-4.6,3.3c0.9,3,1.7,7.3,2.5,13
			c0.7,5.7,1.1,10.7,1.1,15.1c0,10.4-1,19.6-2.9,27.6c-2,8-5.2,14.2-9.7,18.7c-4.5,4.5-10.8,6.8-18.8,6.8c-1.7,0-3.5-0.2-5.5-0.5
			c-2-0.4-3.7-0.8-5.3-1.3c-0.8,1.6-1.6,3.5-2.5,5.6c-0.9,2.1-1.3,4.2-1.3,6.1c0,1.9,0.8,3.5,2.3,4.6c1.5,1.2,3.9,1.9,7.2,2.3
			l17.7,2.1c8.9,1.1,15.5,4.7,19.8,10.9c4.3,6.2,6.5,15,6.5,26.5c0,8.3-1.4,15.4-4.3,21.1c-2.9,5.7-7.2,10-13.1,12.9
			C951.3,291.9,944,293.3,935.1,293.3z M936.6,271c7.5,0,13-1.2,16.5-3.6c3.5-2.4,5.3-6.2,5.3-11.5c0-3.2-0.4-5.8-1.3-8
			c-0.9-2.1-2.4-3.8-4.6-5c-2.2-1.2-5.4-2.1-9.6-2.7l-17.9-2.1c-1.4,1.9-2.8,3.9-4.1,5.8c-1.3,1.9-2.4,4-3.1,6.2
			c-0.8,2.2-1.2,4.6-1.2,7c0,4.6,1.4,8.1,4.3,10.4C923.8,269.9,929,271,936.6,271z M935.7,178.9c3,0,5.4-0.8,7.2-2.3
			c1.8-1.5,3.1-3.7,4-6.6c0.9-2.9,1.5-6.5,1.9-10.8c0.3-4.2,0.5-9,0.5-14.3c0-5.3-0.2-10.1-0.5-14.5c-0.3-4.3-0.9-8.1-1.8-11.2
			c-0.9-3.1-2.2-5.4-3.9-7c-1.8-1.6-4.2-2.4-7.2-2.4c-2.9,0-5.3,0.8-7.2,2.4c-1.9,1.6-3.3,3.8-4.2,6.8c-0.9,2.9-1.6,6.6-2,10.9
			c-0.4,4.3-0.6,9.3-0.6,15c0,4.8,0.2,9.3,0.5,13.4c0.3,4.2,1,7.7,2,10.8c1,3,2.4,5.4,4.2,7.2C930.4,178,932.8,178.9,935.7,178.9z"
			/>
		<path d="M992.4,69.5V39.8h21v29.7H992.4z M992.4,245.8V92.3h21v153.5H992.4z"/>
		<path d="M1067.1,247.9c-9.3,0-16.3-2.5-21.1-7.6c-4.8-5-8-12.2-9.6-21.4c-1.6-9.2-2.5-19.9-2.5-32.1v-35.3
			c0-12.9,0.9-23.9,2.6-33.1c1.7-9.1,4.9-16.1,9.7-21c4.8-4.9,11.8-7.3,20.9-7.3c8.3,0,14.6,1.8,19.2,5.4c4.5,3.6,7.6,9,9.3,16.2
			c1.7,7.2,2.6,16.1,2.6,26.7v9h-19.1v-9.3c0-6.7-0.3-12-1-15.9c-0.7-3.9-1.8-6.7-3.5-8.5c-1.7-1.8-4.1-2.7-7.3-2.7
			c-3.4,0-6,1.1-7.9,3.2c-1.8,2.1-3,5.7-3.6,10.8c-0.6,5-0.9,11.9-0.9,20.6V194c0,13.1,0.9,21.9,2.8,26.3c1.8,4.4,5.1,6.6,9.8,6.6
			c3.5,0,6.1-1.1,7.8-3.3c1.6-2.2,2.7-5.4,3.1-9.4c0.5-4.1,0.7-8.7,0.7-13.8v-12.5h19.1v10.6c0,10.3-0.9,19.1-2.7,26.5
			c-1.8,7.4-4.9,13.1-9.4,17C1081.5,246,1075.2,247.9,1067.1,247.9z"/>
		<path d="M693.6,507.4l2.9-215h21.8l28.1,174.4l28.3-174.4h21.6l2.9,215h-17.9l-1.8-156.1l-26.9,156.1h-12.6l-26.7-156.1
			l-1.8,156.1H693.6z"/>
		<path d="M853.3,509.5c-8.9,0-15.8-2.3-20.6-7c-4.8-4.7-8.2-11.6-10.1-20.7c-1.9-9.1-2.8-20.3-2.8-33.6v-35c0-13.6,1-25,2.9-34
			c2-9,5.4-15.8,10.3-20.4c4.9-4.6,11.7-6.9,20.3-6.9c9.6,0,16.6,2.7,21.1,8c4.5,5.3,7.5,13,8.9,23c1.4,10,2.2,22,2.2,36v12.5h-44.8
			V462c0,6.2,0.4,11.2,1.3,15.1c0.9,3.9,2.2,6.8,4.1,8.6c1.9,1.9,4.4,2.8,7.4,2.8c3.1,0,5.5-1,7.2-3.1c1.6-2,2.8-5,3.3-8.8
			c0.6-3.8,0.9-8.3,0.9-13.4V454h20.4v5.8c0,15.4-2.4,27.5-7.3,36.4C873.2,505.1,865,509.5,853.3,509.5z M840.8,415.8h24.2V402
			c0-6.4-0.3-11.7-0.8-16.1c-0.5-4.3-1.6-7.6-3.2-9.8c-1.6-2.2-4.2-3.3-7.8-3.3c-3.4,0-6,1.1-7.8,3.2c-1.8,2.1-3,5.7-3.6,10.8
			c-0.7,5-1,12-1,20.8V415.8z"/>
		<path d="M904.6,507.4V353.9h19.4v14.6c3.8-5.8,8-10.2,12.6-13c4.6-2.8,9.3-4.2,14.1-4.2c4.2,0,8,1.4,11.3,4.2
			c3.3,2.8,5.7,7.9,7.2,15.1c4.1-6.7,8.5-11.6,13.3-14.7c4.8-3.1,9.8-4.6,15-4.6c3.7,0,7,1.2,10,3.6c3,2.4,5.4,6.2,7.3,11.4
			c1.8,5.2,2.8,12.1,2.8,20.6v120.5h-19.3V388.7c0-7.4-0.9-12.4-2.7-15c-1.8-2.6-4.2-3.8-7.2-3.8c-2.9,0-5.9,1.1-9,3.3
			c-3.1,2.2-6,5.3-8.6,9.2c0,0.7,0,1.4,0,2.1c0,0.7,0,1.5,0,2.4v120.5h-19.3V388.7c0-7.4-0.9-12.4-2.7-15c-1.8-2.6-4.2-3.8-7.2-3.8
			c-2.9,0-5.9,1.1-8.9,3.3c-3.1,2.2-6,5.3-8.7,9.2v125H904.6z"/>
		<path d="M1069.4,509.5c-8.4,0-15-2.3-19.8-6.9c-4.8-4.6-8.3-11.2-10.3-19.6c-2-8.5-3-18.5-3-30v-44.6c0-11.5,1-21.5,3-30
			c2-8.5,5.5-15,10.3-19.6c4.8-4.6,11.5-6.9,19.8-6.9c8.4,0,15,2.3,19.7,6.9c4.8,4.6,8.2,11.2,10.2,19.6c2,8.5,3,18.5,3,30V453
			c0,11.5-1,21.5-3,30c-2,8.5-5.4,15-10.2,19.6C1084.4,507.2,1077.8,509.5,1069.4,509.5z M1069.4,488.5c4.1,0,6.9-1.6,8.5-4.8
			c1.6-3.2,2.6-7.4,2.9-12.6c0.3-5.2,0.5-10.7,0.5-16.3v-48.1c0-5.8-0.2-11.3-0.5-16.5c-0.3-5.1-1.3-9.3-2.9-12.6
			c-1.6-3.3-4.5-4.9-8.5-4.9c-4.1,0-6.9,1.6-8.6,4.9c-1.7,3.3-2.7,7.5-3,12.6c-0.3,5.1-0.5,10.6-0.5,16.5v48.1
			c0,5.7,0.2,11.1,0.5,16.3c0.3,5.2,1.3,9.4,3,12.6C1062.5,486.9,1065.4,488.5,1069.4,488.5z"/>
		<path d="M1122.3,507.4V353.9h21v21.8c4.2-9.4,8.4-15.7,12.6-18.8c4.2-3.2,8.4-4.8,12.6-4.8c0.5,0,1,0,1.5,0c0.5,0,1.1,0.1,1.9,0.3
			v31.3c-1.6-0.9-3.4-1.6-5.4-2.3c-2-0.6-4.1-0.9-6.2-0.9c-3.3,0-6.3,1-8.9,3.1c-2.7,2-5.3,6-8,11.8v112H1122.3z"/>
		<path d="M1183,545.9v-21.8c5.1,0,9.2-0.3,12.2-0.9c3-0.6,5.2-1.8,6.5-3.5c1.3-1.7,2-4,2-7c0-1.6-0.5-5.1-1.4-10.6
			c-0.9-5.5-1.9-11.3-2.9-17.5l-22.8-130.6h21.2l15.3,114.7l14.7-114.7h21.2l-27.1,161.9c-1.2,7.4-3.3,13.3-6.5,17.7
			c-3.1,4.3-7.2,7.5-12.1,9.4c-4.9,1.9-10.8,2.9-17.8,2.9H1183z"/>
		<path d="M685.4,769l33.8-215h21.4l34,215h-21l-7.3-54.2h-32.4l-7.7,54.2H685.4z M716.8,693.3h26.5L730,596.4L716.8,693.3z"/>
		<path d="M789.5,769V615.5h21v21.8c4.2-9.4,8.4-15.7,12.6-18.8c4.2-3.2,8.4-4.8,12.6-4.8c0.5,0,1,0,1.5,0c0.5,0,1.1,0.1,1.9,0.3
			v31.3c-1.6-0.9-3.4-1.6-5.4-2.3c-2-0.6-4.1-0.9-6.2-0.9c-3.3,0-6.3,1-8.9,3.1c-2.7,2-5.3,6-8,11.8v112H789.5z"/>
		<path d="M882.2,771.1c-5.9,0-10.6-1.5-14.2-4.5c-3.6-3-6.2-7.3-7.9-12.7c-1.6-5.5-2.5-11.9-2.5-19.4V634.4h-12v-18.8h12v-44.9h21
			v44.9H897v18.8h-18.3v98.2c0,6,0.7,10.3,2.2,12.9c1.4,2.6,4.2,3.8,8.3,3.8c1,0,2.3-0.1,3.6-0.3c1.4-0.2,2.7-0.4,4-0.5v21
			c-2.6,0.5-5,0.9-7.3,1.2C887.3,771,884.8,771.1,882.2,771.1z"/>
	</g>
	<g>
		<polygon points="390.4,532.4 461,472.8 636.9,324.5 647.7,314.9 647.7,196.2 390.4,413.2 254.5,298.6 158,216.7 158,336.4 
			158,771.1 254.5,771.1 254.5,626.1 254.5,506.8 254.5,417.8 319.7,472.8 		"/>
		<polygon points="130.5,771.1 130.5,156.7 390.3,375.9 636.9,167.9 647.7,158.4 647.7,39.6 390.3,256.7 121.3,29.8 34,29.8 
			34,771.1 		"/>
		<polygon points="283,661.3 282.4,771.1 568,524.1 568,771.1 647.7,771.1 647.7,353.2 		"/>
	</g>
</g>
</svg>
