<?xml version="1.0" encoding="utf-8"?>
<!-- Generator: Adobe Illustrator 22.0.1, SVG Export Plug-In . SVG Version: 6.00 Build 0)  -->
<svg version="1.1" id="Ebene_1" xmlns="http://www.w3.org/2000/svg" xmlns:xlink="http://www.w3.org/1999/xlink" x="0px" y="0px"
	 viewBox="0 0 1280 800" style="enable-background:new 0 0 1280 800;" xml:space="preserve">
<style type="text/css">
	.st0{fill:url(#SVGID_1_);}
	.st1{fill:url(#SVGID_2_);}
	.st2{fill:url(#SVGID_3_);}
	.st3{fill:url(#SVGID_4_);}
	.st4{fill:url(#SVGID_5_);}
	.st5{fill:url(#SVGID_6_);}
	.st6{fill:url(#SVGID_7_);}
	.st7{fill:url(#SVGID_8_);}
	.st8{fill:url(#SVGID_9_);}
	.st9{fill:url(#SVGID_10_);}
	.st10{fill:url(#SVGID_11_);}
	.st11{fill:url(#SVGID_12_);}
	.st12{fill:url(#SVGID_13_);}
	.st13{fill:url(#SVGID_14_);}
	.st14{fill:url(#SVGID_15_);}
	.st15{fill:url(#SVGID_16_);}
	.st16{fill:url(#SVGID_17_);}
</style>
<g>
	<g>
		<linearGradient id="SVGID_1_" gradientUnits="userSpaceOnUse" x1="692.7092" y1="137.8359" x2="798.577" y2="137.8359">
			<stop  offset="0" style="stop-color:#EFCE76"/>
			<stop  offset="0.9987" style="stop-color:#C28E45"/>
		</linearGradient>
		<path class="st0" d="M692.7,245.5l3-215.4h21.8l28.1,174.7L774,30.1h21.6l3,215.4h-17.9l-1.8-156.4l-27,156.4h-12.6L712.6,89.2
			l-1.8,156.4H692.7z"/>
		<linearGradient id="SVGID_2_" gradientUnits="userSpaceOnUse" x1="818.8431" y1="168.6835" x2="886.7317" y2="168.6835">
			<stop  offset="0" style="stop-color:#EFCE76"/>
			<stop  offset="0.9987" style="stop-color:#C28E45"/>
		</linearGradient>
		<path class="st1" d="M841.7,247.7c-4.5,0-8.4-1.7-11.8-5.2c-3.4-3.5-6.1-7.9-8.1-13.3c-2-5.4-3-11.1-3-17.2
			c0-9.6,1.2-17.6,3.5-24.2c2.4-6.6,5.6-12.1,9.7-16.6c4.1-4.5,8.9-8.5,14.4-11.8c5.4-3.4,11.2-6.6,17.2-9.8v-10.9
			c0-6.2-0.3-11.3-0.8-15.4c-0.5-4.1-1.6-7.1-3.2-9.2c-1.6-2-4.1-3.1-7.4-3.1c-2.9,0-5.2,0.9-7,2.7c-1.8,1.8-3,4.3-3.8,7.6
			c-0.8,3.3-1.2,7.1-1.2,11.6v7.7l-20.9-1.1c0.3-17,3.1-29.6,8.7-37.6c5.5-8.1,14-12.1,25.6-12.1c11.3,0,19.3,4.2,24,12.5
			c4.7,8.3,7.1,20.4,7.1,36.2v70.2c0,4.8,0.1,9.4,0.3,13.8c0.2,4.4,0.5,8.6,0.8,12.4c0.3,3.8,0.6,7.4,0.9,10.8h-19.3
			c-0.4-2.8-0.9-6.4-1.5-10.8c-0.6-4.3-1-8.3-1.3-11.8c-1.3,6-3.8,11.7-7.6,16.9C853.4,245.1,848.2,247.7,841.7,247.7z M849.9,223.2
			c2.1,0,4.1-0.8,5.9-2.4c1.8-1.6,3.5-3.4,4.9-5.5c1.4-2,2.4-3.7,3-4.9v-43.6c-3.3,2.5-6.4,5-9.2,7.4c-2.9,2.5-5.4,5.1-7.6,7.8
			c-2.2,2.8-3.9,5.9-5.1,9.3c-1.2,3.5-1.9,7.4-1.9,11.8c0,6.2,0.9,11.1,2.6,14.6C844.2,221.4,846.7,223.2,849.9,223.2z"/>
		<linearGradient id="SVGID_3_" gradientUnits="userSpaceOnUse" x1="898.3409" y1="191.0214" x2="982.3672" y2="191.0214">
			<stop  offset="0" style="stop-color:#EFCE76"/>
			<stop  offset="0.9987" style="stop-color:#C28E45"/>
		</linearGradient>
		<path class="st2" d="M934.5,293.1c-6.8,0-13-1-18.5-2.9c-5.5-2-9.8-5.1-13-9.3s-4.7-9.8-4.7-16.8c0-5,0.8-9.3,2.4-13
			c1.6-3.7,3.6-7,6.1-9.7c2.5-2.7,5.1-5,7.9-6.8c-3.7-1.4-6.4-3.7-8.3-6.8c-1.8-3.1-2.8-6.3-2.8-9.7c0-5.7,1.1-10.5,3.3-14.6
			c2.2-4.1,5.3-8.5,9.2-13.3c-4.3-4.4-7.6-10.1-9.8-17c-2.2-6.9-3.3-16.5-3.3-28.7c0-12.1,1.2-22.1,3.6-30.2
			c2.4-8.1,6-14.2,10.8-18.3c4.8-4.2,10.7-6.2,17.6-6.2c6.2,0,11.1,1.4,14.9,4.3c3.7,2.8,6.6,7.1,8.6,12.8c0.7-1.4,2.4-3.9,5.3-7.3
			c2.9-3.5,6.2-6.3,10-8.6l3.1-1.9l5.3,18.3c-1.7,0.4-4,1.2-6.8,2.5c-2.8,1.3-5.4,2.7-7.9,4c-2.4,1.3-4,2.4-4.6,3.3
			c0.9,3,1.7,7.4,2.5,13c0.7,5.7,1.1,10.7,1.1,15.2c0,10.5-1,19.7-3,27.7c-2,8-5.2,14.2-9.7,18.7c-4.5,4.5-10.8,6.8-18.8,6.8
			c-1.7,0-3.5-0.2-5.5-0.5c-2-0.4-3.7-0.8-5.3-1.3c-0.8,1.6-1.6,3.5-2.5,5.6c-0.9,2.1-1.3,4.2-1.3,6.1c0,2,0.8,3.5,2.3,4.7
			c1.5,1.2,3.9,1.9,7.2,2.3l17.7,2.1c8.9,1.1,15.5,4.7,19.9,10.9c4.3,6.2,6.5,15.1,6.5,26.6c0,8.3-1.4,15.4-4.3,21.1
			c-2.9,5.8-7.3,10.1-13.1,12.9C950.8,291.7,943.5,293.1,934.5,293.1z M936.1,270.8c7.5,0,13-1.2,16.5-3.6c3.5-2.4,5.3-6.2,5.3-11.6
			c0-3.2-0.4-5.9-1.3-8c-0.9-2.1-2.4-3.8-4.6-5.1c-2.2-1.2-5.4-2.1-9.6-2.7l-17.9-2.1c-1.4,2-2.8,3.9-4.1,5.9
			c-1.3,1.9-2.4,4-3.1,6.2c-0.8,2.2-1.2,4.6-1.2,7c0,4.6,1.4,8.1,4.3,10.4C923.3,269.6,928.5,270.8,936.1,270.8z M935.1,178.5
			c3,0,5.4-0.8,7.2-2.3c1.8-1.5,3.1-3.7,4-6.6c0.9-2.9,1.5-6.5,1.9-10.8c0.3-4.3,0.5-9,0.5-14.4c0-5.3-0.2-10.1-0.5-14.5
			c-0.3-4.3-0.9-8.1-1.8-11.2c-0.9-3.1-2.2-5.5-3.9-7c-1.8-1.6-4.2-2.4-7.2-2.4c-2.9,0-5.3,0.8-7.2,2.4c-1.9,1.6-3.3,3.9-4.2,6.8
			c-0.9,2.9-1.6,6.6-2,10.9c-0.4,4.3-0.6,9.4-0.6,15c0,4.8,0.2,9.3,0.5,13.4c0.3,4.2,1,7.8,2,10.8c1,3,2.4,5.4,4.2,7.2
			C929.9,177.6,932.3,178.5,935.1,178.5z"/>
		<linearGradient id="SVGID_4_" gradientUnits="userSpaceOnUse" x1="992.0093" y1="142.3568" x2="1013.0641" y2="142.3568">
			<stop  offset="0" style="stop-color:#EFCE76"/>
			<stop  offset="0.9987" style="stop-color:#C28E45"/>
		</linearGradient>
		<path class="st3" d="M992,69V39.2h21.1V69H992z M992,245.5V91.8h21.1v153.7H992z"/>
		<linearGradient id="SVGID_5_" gradientUnits="userSpaceOnUse" x1="1033.5266" y1="168.6835" x2="1097.8739" y2="168.6835">
			<stop  offset="0" style="stop-color:#EFCE76"/>
			<stop  offset="0.9987" style="stop-color:#C28E45"/>
		</linearGradient>
		<path class="st4" d="M1066.8,247.7c-9.3,0-16.4-2.5-21.2-7.6c-4.8-5.1-8-12.2-9.6-21.4c-1.6-9.2-2.5-19.9-2.5-32.2v-35.4
			c0-12.9,0.9-24,2.6-33.1c1.7-9.1,5-16.1,9.7-21c4.8-4.9,11.8-7.3,21-7.3c8.3,0,14.7,1.8,19.2,5.5c4.5,3.6,7.6,9,9.3,16.2
			c1.7,7.2,2.6,16.1,2.6,26.7v9h-19.1v-9.3c0-6.7-0.3-12.1-1-16c-0.7-3.9-1.8-6.7-3.5-8.5c-1.7-1.8-4.1-2.7-7.3-2.7
			c-3.4,0-6,1.1-7.9,3.2c-1.8,2.1-3.1,5.7-3.6,10.8c-0.6,5.1-0.9,11.9-0.9,20.6v48.4c0,13.1,0.9,21.9,2.8,26.3
			c1.8,4.4,5.1,6.6,9.8,6.6c3.5,0,6.1-1.1,7.8-3.3c1.6-2.2,2.7-5.4,3.1-9.4c0.5-4.1,0.7-8.7,0.7-13.8v-12.5h19.1v10.6
			c0,10.3-0.9,19.1-2.7,26.6c-1.8,7.4-4.9,13.1-9.4,17C1081.2,245.7,1074.9,247.7,1066.8,247.7z"/>
		<linearGradient id="SVGID_6_" gradientUnits="userSpaceOnUse" x1="692.7092" y1="399.8589" x2="798.577" y2="399.8589">
			<stop  offset="0" style="stop-color:#EFCE76"/>
			<stop  offset="0.9987" style="stop-color:#C28E45"/>
		</linearGradient>
		<path class="st5" d="M692.7,507.6l3-215.4h21.8l28.1,174.7L774,292.2h21.6l3,215.4h-17.9l-1.8-156.4l-27,156.4h-12.6l-26.8-156.4
			l-1.8,156.4H692.7z"/>
		<linearGradient id="SVGID_7_" gradientUnits="userSpaceOnUse" x1="819.0396" y1="430.7065" x2="884.9611" y2="430.7065">
			<stop  offset="0" style="stop-color:#EFCE76"/>
			<stop  offset="0.9987" style="stop-color:#C28E45"/>
		</linearGradient>
		<path class="st6" d="M852.7,509.7c-8.9,0-15.8-2.3-20.7-7c-4.9-4.7-8.2-11.6-10.1-20.7c-1.9-9.1-2.9-20.3-2.9-33.6v-35.1
			c0-13.6,1-25,3-34c2-9,5.4-15.9,10.3-20.5c4.9-4.6,11.7-6.9,20.4-6.9c9.6,0,16.6,2.7,21.2,8c4.5,5.3,7.5,13,9,23
			c1.4,10,2.2,22,2.2,36v12.5h-44.9v30.8c0,6.2,0.4,11.3,1.3,15.2c0.9,3.9,2.2,6.8,4.1,8.6c1.9,1.9,4.4,2.8,7.4,2.8
			c3.1,0,5.5-1,7.2-3.1c1.6-2,2.8-5,3.3-8.8c0.6-3.8,0.9-8.3,0.9-13.4v-9.3h20.5v5.9c0,15.4-2.4,27.6-7.3,36.4
			C872.6,505.3,864.4,509.7,852.7,509.7z M840.1,415.8h24.2V402c0-6.4-0.3-11.7-0.8-16.1c-0.5-4.3-1.6-7.6-3.2-9.8
			c-1.6-2.2-4.2-3.3-7.8-3.3c-3.4,0-6,1.1-7.8,3.2c-1.8,2.1-3,5.7-3.6,10.8c-0.7,5.1-1,12-1,20.9V415.8z"/>
		<linearGradient id="SVGID_8_" gradientUnits="userSpaceOnUse" x1="904.0467" y1="429.3769" x2="1017.1957" y2="429.3769">
			<stop  offset="0" style="stop-color:#EFCE76"/>
			<stop  offset="0.9987" style="stop-color:#C28E45"/>
		</linearGradient>
		<path class="st7" d="M904,507.6V353.9h19.5v14.6c3.8-5.9,8-10.2,12.6-13c4.6-2.8,9.3-4.3,14.2-4.3c4.2,0,8,1.4,11.3,4.3
			c3.3,2.8,5.7,7.9,7.2,15.2c4.1-6.7,8.5-11.7,13.3-14.8c4.8-3.1,9.8-4.7,15.1-4.7c3.7,0,7,1.2,10,3.6c3,2.4,5.4,6.2,7.3,11.4
			c1.8,5.2,2.8,12.1,2.8,20.6v120.7h-19.3V388.7c0-7.4-0.9-12.5-2.7-15c-1.8-2.6-4.2-3.9-7.2-3.9c-2.9,0-5.9,1.1-9.1,3.3
			c-3.1,2.2-6,5.3-8.7,9.2c0,0.7,0,1.4,0,2.1c0,0.7,0,1.5,0,2.4v120.7h-19.3V388.7c0-7.4-0.9-12.5-2.7-15c-1.8-2.6-4.2-3.9-7.2-3.9
			c-2.9,0-5.9,1.1-9,3.3c-3.1,2.2-6,5.3-8.8,9.2v125.3H904z"/>
		<linearGradient id="SVGID_9_" gradientUnits="userSpaceOnUse" x1="1035.8887" y1="430.7065" x2="1102.204" y2="430.7065">
			<stop  offset="0" style="stop-color:#EFCE76"/>
			<stop  offset="0.9987" style="stop-color:#C28E45"/>
		</linearGradient>
		<path class="st8" d="M1069.1,509.7c-8.4,0-15-2.3-19.9-6.9c-4.9-4.6-8.3-11.2-10.3-19.7c-2-8.5-3.1-18.5-3.1-30v-44.7
			c0-11.5,1-21.5,3.1-30c2-8.5,5.5-15.1,10.3-19.7c4.9-4.6,11.5-6.9,19.9-6.9c8.4,0,15,2.3,19.8,6.9c4.8,4.6,8.2,11.2,10.2,19.7
			c2,8.5,3.1,18.5,3.1,30V453c0,11.5-1,21.5-3.1,30c-2,8.5-5.4,15.1-10.2,19.7C1084.1,507.4,1077.5,509.7,1069.1,509.7z
			 M1069.1,488.7c4.1,0,6.9-1.6,8.6-4.8c1.6-3.2,2.6-7.4,3-12.6c0.3-5.2,0.5-10.7,0.5-16.4v-48.1c0-5.9-0.2-11.3-0.5-16.5
			c-0.3-5.1-1.3-9.3-3-12.6c-1.6-3.3-4.5-4.9-8.6-4.9c-4.1,0-7,1.6-8.7,4.9c-1.7,3.3-2.7,7.5-3.1,12.6c-0.3,5.1-0.5,10.6-0.5,16.5
			v48.1c0,5.7,0.2,11.1,0.5,16.4c0.3,5.2,1.3,9.4,3.1,12.6C1062.2,487.1,1065.1,488.7,1069.1,488.7z"/>
		<linearGradient id="SVGID_10_" gradientUnits="userSpaceOnUse" x1="1122.0763" y1="429.7758" x2="1171.6647" y2="429.7758">
			<stop  offset="0" style="stop-color:#EFCE76"/>
			<stop  offset="0.9987" style="stop-color:#C28E45"/>
		</linearGradient>
		<path class="st9" d="M1122.1,507.6V353.9h21.1v21.8c4.2-9.4,8.4-15.7,12.6-18.9c4.2-3.2,8.4-4.8,12.6-4.8c0.5,0,1,0,1.5,0
			c0.5,0,1.1,0.1,1.9,0.3v31.4c-1.6-0.9-3.4-1.6-5.4-2.3c-2-0.6-4.1-0.9-6.2-0.9c-3.3,0-6.3,1-9,3.1c-2.7,2-5.3,6-8,11.8v112.2
			H1122.1z"/>
		<linearGradient id="SVGID_11_" gradientUnits="userSpaceOnUse" x1="1176.3876" y1="449.9863" x2="1249" y2="449.9863">
			<stop  offset="0" style="stop-color:#EFCE76"/>
			<stop  offset="0.9987" style="stop-color:#C28E45"/>
		</linearGradient>
		<path class="st10" d="M1182.9,546.1v-21.8c5.1,0,9.2-0.3,12.2-0.9c3-0.6,5.2-1.8,6.5-3.5c1.3-1.7,2-4,2-7c0-1.6-0.5-5.1-1.4-10.6
			c-0.9-5.5-1.9-11.3-3-17.6l-22.8-130.8h21.3l15.3,114.9l14.8-114.9h21.3l-27.2,162.2c-1.2,7.4-3.3,13.3-6.5,17.7
			c-3.1,4.3-7.2,7.5-12.1,9.4c-4.9,1.9-10.9,2.9-17.8,2.9H1182.9z"/>
		<linearGradient id="SVGID_12_" gradientUnits="userSpaceOnUse" x1="684.444" y1="661.882" x2="773.7823" y2="661.882">
			<stop  offset="0" style="stop-color:#EFCE76"/>
			<stop  offset="0.9987" style="stop-color:#C28E45"/>
		</linearGradient>
		<path class="st11" d="M684.4,769.6l33.8-215.4h21.4l34,215.4h-21.1l-7.3-54.2H713l-7.7,54.2H684.4z M715.9,693.8h26.6l-13.4-97.1
			L715.9,693.8z"/>
		<linearGradient id="SVGID_13_" gradientUnits="userSpaceOnUse" x1="788.7354" y1="691.7989" x2="838.3237" y2="691.7989">
			<stop  offset="0" style="stop-color:#EFCE76"/>
			<stop  offset="0.9987" style="stop-color:#C28E45"/>
		</linearGradient>
		<path class="st12" d="M788.7,769.6V615.9h21.1v21.8c4.2-9.4,8.4-15.7,12.6-18.9c4.2-3.2,8.4-4.8,12.6-4.8c0.5,0,1,0,1.5,0
			c0.5,0,1.1,0.1,1.9,0.3v31.4c-1.6-0.9-3.4-1.6-5.4-2.3c-2-0.6-4.1-0.9-6.2-0.9c-3.3,0-6.3,1-9,3.1c-2.7,2-5.3,6-8,11.8v112.2
			H788.7z"/>
		<linearGradient id="SVGID_14_" gradientUnits="userSpaceOnUse" x1="845.0147" y1="671.3225" x2="896.3749" y2="671.3225">
			<stop  offset="0" style="stop-color:#EFCE76"/>
			<stop  offset="0.9987" style="stop-color:#C28E45"/>
		</linearGradient>
		<path class="st13" d="M881.6,771.7c-5.9,0-10.7-1.5-14.3-4.5c-3.6-3-6.2-7.3-7.9-12.8c-1.6-5.5-2.5-12-2.5-19.4V634.8h-12v-18.9
			h12v-44.9h21.1v44.9h18.3v18.9h-18.3v98.4c0,6,0.7,10.3,2.2,12.9c1.4,2.6,4.2,3.9,8.3,3.9c1,0,2.3-0.1,3.6-0.3
			c1.4-0.2,2.7-0.4,4-0.5v21c-2.6,0.5-5.1,0.9-7.3,1.2C886.7,771.6,884.2,771.7,881.6,771.7z"/>
	</g>
	<g>
		<linearGradient id="SVGID_15_" gradientUnits="userSpaceOnUse" x1="156.1892" y1="483.7962" x2="646.6836" y2="483.7962">
			<stop  offset="0" style="stop-color:#EFCE76"/>
			<stop  offset="0.9987" style="stop-color:#C28E45"/>
		</linearGradient>
		<polygon class="st14" points="389,532.6 459.8,472.9 635.9,324.4 646.7,314.8 646.7,195.9 389,413.2 252.8,298.4 156.2,216.4 
			156.2,336.3 156.2,771.7 252.8,771.7 252.8,626.4 252.8,507 252.8,417.8 318.2,472.9 		"/>
		<linearGradient id="SVGID_16_" gradientUnits="userSpaceOnUse" x1="32" y1="400.4278" x2="646.6855" y2="400.4278">
			<stop  offset="0" style="stop-color:#EFCE76"/>
			<stop  offset="0.9987" style="stop-color:#C28E45"/>
		</linearGradient>
		<polygon class="st15" points="128.7,771.7 128.7,156.3 388.9,375.9 635.9,167.5 646.7,158 646.7,39 388.9,256.5 119.4,29.1 
			32,29.1 32,771.7 		"/>
		<linearGradient id="SVGID_17_" gradientUnits="userSpaceOnUse" x1="280.8347" y1="562.4139" x2="646.6855" y2="562.4139">
			<stop  offset="0" style="stop-color:#EFCE76"/>
			<stop  offset="0.9987" style="stop-color:#C28E45"/>
		</linearGradient>
		<polygon class="st16" points="281.4,661.7 280.8,771.7 566.8,524.4 566.8,771.7 646.7,771.7 646.7,353.1 		"/>
	</g>
</g>
</svg>
